<svg width="112.000000" height="112.000000" viewBox="0 0 112 112" fill="none" xmlns="http://www.w3.org/2000/svg" xmlns:xlink="http://www.w3.org/1999/xlink">
	<defs/>
	<path id="Union" d="M56 0C25.072 0 0 25.072 0 56C0 86.928 25.072 112 56 112L112 112L112 56C112 25.072 86.928 0 56 0Z" clip-rule="evenodd" fill="#FC2E90" fill-opacity="0.300000" fill-rule="evenodd"/>
	<path id="Union" d="M56.0012 23.3345C37.9597 23.3345 23.3345 37.9597 23.3345 56.0012C23.3345 74.0425 37.9597 88.6677 56.0012 88.6677C56.093 88.6677 56.1848 88.6675 56.2766 88.6667L88.6667 88.6667L88.6667 56.2766C88.6675 56.1848 88.6677 56.093 88.6677 56.0012C88.6677 37.9597 74.0425 23.3345 56.0012 23.3345Z" clip-rule="evenodd" fill="#FFFFFF" fill-opacity="1.000000" fill-rule="evenodd"/>
	<path id="Union" d="M56 42C48.2681 42 42 48.2681 42 56C42 63.7319 48.2681 70 56 70L70 70L70 56C70 48.2681 63.7319 42 56 42Z" clip-rule="evenodd" fill="#FC2E90" fill-opacity="1.000000" fill-rule="evenodd"/>
</svg>
