<svg width="1000.000000" height="64.000000" viewBox="0 0 1000 64" fill="none" xmlns="http://www.w3.org/2000/svg" xmlns:xlink="http://www.w3.org/1999/xlink">
	<defs/>
	<rect id="Rectangle 25" rx="32.000000" width="1000.000000" height="64.000000" fill="#FC2E90" fill-opacity="1.000000"/>
	<path id="Узнать ответ, задать вопрос по любому предмету?" d="M622.54 28.22Q621.83 30.25 621.83 33.14Q621.83 35.1 622.27 36.61Q622.72 38.11 623.56 39.14Q624.11 39.82 624.8 40.28Q625.16 40.52 625.57 40.7Q626.74 41.23 628.19 41.23Q630.09 41.23 631.53 40.48Q632.06 40.21 632.5 39.83Q633.27 39.18 633.78 38.24Q634.6 36.74 634.6 34.51Q634.6 32.62 633.97 31.34Q633.53 30.45 632.83 29.86Q632.53 29.62 632.2 29.43Q631.05 28.78 629.48 28.78Q628.48 28.78 627.72 29.09Q626.96 29.41 626.44 29.87Q625.93 30.33 625.65 30.78L625.47 30.78Q625.57 29.15 625.99 28.28Q626.28 27.68 626.75 27.31Q626.96 27.14 627.21 27.01Q628 26.62 629.2 26.43Q629.75 26.35 630.43 26.26Q631.11 26.17 631.83 26.08Q632.56 26 633.28 25.91Q633.99 25.83 634.6 25.76L634.19 22.63Q632.78 22.82 631.48 22.97Q630.17 23.11 628.9 23.33Q626.37 23.77 624.82 24.98Q624.44 25.27 624.12 25.6Q623.09 26.68 622.54 28.22ZM822.48 34.44L822.48 35.31L825.59 35.31L825.59 34.61Q825.59 34.12 825.72 33.77Q825.86 33.42 826.23 33.07Q826.61 32.72 827.31 32.21Q828.25 31.53 828.87 30.91Q829.5 30.3 829.81 29.58Q830.12 28.85 830.12 27.87Q830.12 26.91 829.75 26.12Q829.41 25.39 828.74 24.82Q827.37 23.62 824.86 23.62Q823.23 23.62 821.86 24.02Q820.49 24.42 819.32 25.08L820.59 27.65Q821.61 27.13 822.6 26.82Q823.42 26.55 824.25 26.51Q824.42 26.5 824.6 26.5Q825.61 26.5 826.17 26.9Q826.39 27.05 826.52 27.26Q826.73 27.59 826.73 28.06Q826.73 28.57 826.53 28.98Q826.32 29.38 825.89 29.79Q825.45 30.2 824.72 30.72Q823.91 31.3 823.42 31.86Q822.93 32.42 822.7 33.03Q822.48 33.65 822.48 34.44ZM177.9 35.98L183.21 23.86L179.46 23.86L176.48 31.06L176.17 31.85Q175.99 32.29 175.83 32.7Q175.67 33.12 175.58 33.41L175.45 33.41Q175.36 33.11 175.19 32.7Q175.02 32.3 174.85 31.91Q174.68 31.51 174.57 31.28L171.37 23.86L167.53 23.86L173.46 36.17Q173.26 36.73 172.97 37.19Q172.86 37.35 172.73 37.5Q172.49 37.74 172.18 37.91Q171.69 38.18 170.89 38.18Q170.28 38.18 169.6 38.08Q168.91 37.98 168.33 37.76L168.33 40.88Q168.96 41.05 169.7 41.14Q170.44 41.23 171.07 41.23Q173.08 41.23 174.33 40.6Q174.82 40.36 175.24 40.02Q175.89 39.51 176.38 38.8Q177.19 37.62 177.9 35.98ZM225.15 28.77Q223.74 27.62 221.11 27.62Q219.72 27.62 218.43 27.94Q217.13 28.26 216.09 28.81L217.27 31.22Q218.19 30.81 219.1 30.54Q219.6 30.39 220.12 30.33Q220.54 30.27 220.97 30.27Q221.92 30.27 222.46 30.74Q222.46 30.75 222.47 30.75Q222.49 30.77 222.51 30.8Q223 31.28 223 32.26L223 32.84L220.73 32.91Q217.8 33.01 216.34 34Q215.87 34.32 215.56 34.74Q214.87 35.66 214.87 37.08Q214.87 38.5 215.4 39.42Q215.72 39.98 216.18 40.36Q216.48 40.61 216.85 40.78Q217.77 41.23 218.93 41.23Q220.02 41.23 220.78 41.02Q221.53 40.81 222.11 40.38Q222.12 40.37 222.13 40.36Q222.71 39.92 223.27 39.21L223.37 39.21L224.06 41L226.56 41L226.56 32.26Q226.56 30.34 225.6 29.22Q225.4 28.98 225.15 28.77ZM376.74 28.77Q375.33 27.62 372.69 27.62Q371.31 27.62 370.02 27.94Q368.72 28.26 367.68 28.81L368.86 31.22Q369.78 30.81 370.69 30.54Q371.19 30.39 371.7 30.33Q372.13 30.27 372.55 30.27Q373.51 30.27 374.04 30.74L374.05 30.75Q374.08 30.77 374.1 30.8Q374.59 31.28 374.59 32.26L374.59 32.84L372.32 32.91Q369.39 33.01 367.93 34Q367.46 34.32 367.14 34.74Q366.46 35.66 366.46 37.08Q366.46 38.5 366.99 39.42Q367.31 39.98 367.77 40.36Q368.07 40.61 368.43 40.78Q369.35 41.23 370.51 41.23Q371.6 41.23 372.37 41.02Q373.12 40.81 373.7 40.38Q373.7 40.37 373.71 40.36Q374.3 39.92 374.86 39.21L374.96 39.21L375.65 41L378.14 41L378.14 32.26Q378.14 30.34 377.19 29.22Q376.99 28.98 376.74 28.77ZM408.13 28.77Q406.72 27.62 404.09 27.62Q402.71 27.62 401.41 27.94Q400.12 28.26 399.07 28.81L400.26 31.22Q401.17 30.81 402.08 30.54Q402.59 30.39 403.1 30.33Q403.52 30.27 403.95 30.27Q404.9 30.27 405.44 30.74L405.45 30.75Q405.47 30.77 405.49 30.8Q405.99 31.28 405.99 32.26L405.99 32.84L403.71 32.91Q400.78 33.01 399.32 34Q398.85 34.32 398.54 34.74Q397.85 35.66 397.85 37.08Q397.85 38.5 398.38 39.42Q398.7 39.98 399.16 40.36Q399.47 40.61 399.83 40.78Q400.75 41.23 401.91 41.23Q403 41.23 403.76 41.02Q404.51 40.81 405.09 40.38Q405.1 40.37 405.11 40.36Q405.69 39.92 406.26 39.21L406.35 39.21L407.04 41L409.54 41L409.54 32.26Q409.54 30.34 408.59 29.22Q408.38 28.98 408.13 28.77ZM192.98 28.02Q191.75 27.65 190.33 27.65Q188.49 27.65 187.16 27.92Q185.83 28.2 184.7 28.63L185.75 31.13Q186.72 30.73 187.84 30.51Q188.95 30.3 189.88 30.3Q191.31 30.3 191.93 30.61Q192.29 30.8 192.44 31.09Q192.55 31.3 192.55 31.56Q192.55 31.82 192.45 32.02Q192.23 32.44 191.58 32.64Q190.6 32.93 188.82 32.93L187.51 32.93L187.51 35.41L188.89 35.41Q190.16 35.41 190.98 35.58Q191.81 35.75 192.21 36.09Q192.42 36.27 192.52 36.49Q192.62 36.71 192.62 36.96Q192.62 37.24 192.51 37.45Q192.4 37.69 192.16 37.86Q191.69 38.19 190.9 38.33Q190.11 38.48 189.14 38.48Q187.79 38.48 186.6 38.16Q185.41 37.84 184.6 37.47L184.6 40.42Q185.18 40.68 185.95 40.86Q186.72 41.04 187.66 41.14Q188.59 41.23 189.64 41.23Q191.87 41.23 193.29 40.67Q194.72 40.1 195.41 39.18Q195.85 38.6 196.01 37.95Q196.1 37.57 196.1 37.17Q196.1 36.2 195.7 35.6Q195.58 35.42 195.43 35.26Q195.09 34.9 194.63 34.67Q193.96 34.33 193.12 34.13L193.12 34.01Q194.31 33.71 195.02 33.01Q195.19 32.85 195.31 32.66Q195.74 32.04 195.74 31.13Q195.74 30.3 195.38 29.68Q195.21 29.39 194.97 29.15Q194.21 28.39 192.98 28.02ZM277.86 37.33Q278.3 36.06 278.3 34.42Q278.3 32.24 277.49 30.73Q276.94 29.72 276.13 29.03Q275.72 28.69 275.25 28.43Q275.21 28.41 275.16 28.39Q273.77 27.65 271.99 27.65Q270.01 27.65 268.58 28.43Q268.03 28.73 267.58 29.14Q266.85 29.8 266.37 30.73Q265.6 32.24 265.6 34.42Q265.6 36.06 266.06 37.33Q266.53 38.59 267.38 39.47Q267.73 39.83 268.13 40.12Q268.71 40.52 269.38 40.78Q270.53 41.23 271.92 41.23Q273.39 41.23 274.57 40.78Q275.4 40.47 276.06 39.95Q276.34 39.73 276.59 39.47Q277.42 38.59 277.86 37.33ZM319.6 28.34Q318.29 27.65 316.47 27.65Q314.62 27.65 313.22 28.41Q312.83 28.63 312.48 28.91Q311.61 29.62 311.05 30.71Q310.27 32.24 310.27 34.54Q310.27 36.8 311.13 38.29Q311.62 39.12 312.31 39.72Q312.85 40.18 313.51 40.5Q315.03 41.23 317 41.23Q318.51 41.23 319.57 41.01Q320.08 40.9 320.57 40.73Q321.1 40.55 321.6 40.3L321.6 37.54Q320.5 38.05 319.46 38.31Q318.42 38.57 317.16 38.57Q315.88 38.57 315.07 37.95Q314.93 37.84 314.8 37.71Q314.71 37.62 314.63 37.52Q313.94 36.69 313.89 35.33L322.34 35.33L322.34 33.6Q322.34 31.69 321.63 30.37Q321.24 29.65 320.69 29.12Q320.21 28.67 319.6 28.34ZM360.94 28.02Q359.71 27.65 358.29 27.65Q356.45 27.65 355.12 27.92Q353.79 28.2 352.66 28.63L353.71 31.13Q354.68 30.73 355.8 30.51Q356.91 30.3 357.84 30.3Q359.27 30.3 359.89 30.61Q360.25 30.8 360.4 31.09Q360.51 31.3 360.51 31.56Q360.51 31.82 360.4 32.02Q360.19 32.44 359.53 32.64Q358.56 32.93 356.78 32.93L355.47 32.93L355.47 35.41L356.85 35.41Q358.12 35.41 358.94 35.58Q359.77 35.75 360.17 36.09Q360.38 36.27 360.48 36.49Q360.58 36.71 360.58 36.96Q360.58 37.24 360.47 37.45Q360.35 37.69 360.11 37.86Q359.65 38.19 358.86 38.33Q358.07 38.48 357.1 38.48Q355.75 38.48 354.56 38.16Q353.37 37.84 352.56 37.47L352.56 40.42Q353.14 40.68 353.91 40.86Q354.68 41.04 355.61 41.14Q356.55 41.23 357.6 41.23Q359.83 41.23 361.25 40.67Q362.68 40.1 363.37 39.18Q363.81 38.6 363.97 37.95Q364.06 37.57 364.06 37.17Q364.06 36.2 363.66 35.6Q363.54 35.42 363.38 35.26Q363.05 34.9 362.59 34.67Q361.91 34.33 361.08 34.13L361.08 34.01Q362.27 33.71 362.98 33.01Q363.14 32.85 363.27 32.66Q363.7 32.04 363.7 31.13Q363.7 30.3 363.34 29.68Q363.17 29.39 362.93 29.15Q362.17 28.39 360.94 28.02ZM476.42 37.33Q476.86 36.06 476.86 34.42Q476.86 32.24 476.04 30.73Q475.5 29.72 474.68 29.03Q474.28 28.69 473.81 28.43Q473.76 28.41 473.72 28.39Q472.33 27.65 470.54 27.65Q468.56 27.65 467.13 28.43Q466.58 28.73 466.13 29.14Q465.41 29.8 464.93 30.73Q464.16 32.24 464.16 34.42Q464.16 36.06 464.62 37.33Q465.08 38.59 465.93 39.47Q466.28 39.83 466.69 40.12Q467.26 40.52 467.94 40.78Q469.09 41.23 470.47 41.23Q471.95 41.23 473.13 40.78Q473.95 40.47 474.61 39.95Q474.89 39.73 475.14 39.47Q475.98 38.59 476.42 37.33ZM505.74 28.1Q504.84 27.65 503.71 27.65Q502.77 27.65 502.06 27.91Q501.35 28.17 500.85 28.62Q500.34 29.07 499.99 29.59L499.83 29.59L499.32 27.89L496.42 27.89L496.42 46.76L499.99 46.76L499.99 41.48Q499.99 41.01 499.94 40.51Q499.9 40.02 499.8 39.55L499.99 39.55Q500.34 39.99 500.82 40.37Q501.3 40.75 501.98 40.99Q502.66 41.23 503.61 41.23Q504.65 41.23 505.52 40.85Q505.89 40.69 506.23 40.46Q507.36 39.68 508.01 38.16Q508.65 36.65 508.65 34.42Q508.65 31.09 507.29 29.37Q506.62 28.53 505.74 28.1ZM523.55 37.33Q523.99 36.06 523.99 34.42Q523.99 32.24 523.18 30.73Q522.63 29.72 521.81 29.03Q521.41 28.69 520.94 28.43Q520.89 28.41 520.85 28.39Q519.46 27.65 517.67 27.65Q515.69 27.65 514.26 28.43Q513.71 28.73 513.26 29.14Q512.54 29.8 512.06 30.73Q511.29 32.24 511.29 34.42Q511.29 36.06 511.75 37.33Q512.21 38.59 513.06 39.47Q513.42 39.83 513.82 40.12Q514.39 40.52 515.07 40.78Q516.22 41.23 517.6 41.23Q519.08 41.23 520.26 40.78Q521.09 40.47 521.75 39.95Q522.02 39.73 522.27 39.47Q523.11 38.59 523.55 37.33ZM529.43 40.52Q530.8 41.23 532.74 41.23Q534.12 41.23 535.01 41Q535.04 40.99 535.07 40.99Q535.93 40.76 536.73 40.26L536.73 37.2Q535.91 37.74 535.04 38.04Q534.17 38.33 533.06 38.33Q532.19 38.33 531.58 37.94Q531.56 37.93 531.55 37.92Q530.93 37.5 530.6 36.65Q530.27 35.79 530.27 34.49Q530.27 33.17 530.58 32.29Q530.88 31.42 531.49 30.98L531.5 30.97Q532.12 30.53 533.06 30.53Q533.79 30.53 534.51 30.75Q535.24 30.96 536.08 31.3L537.14 28.54Q536.4 28.17 535.41 27.91Q534.42 27.65 533.06 27.65Q531.15 27.65 529.7 28.36Q529.23 28.6 528.82 28.92Q527.99 29.57 527.44 30.59Q526.63 32.11 526.63 34.51Q526.63 36.83 527.34 38.32Q527.82 39.31 528.58 39.96Q528.97 40.28 529.43 40.52ZM574.55 37.33Q574.99 36.06 574.99 34.42Q574.99 32.24 574.17 30.73Q573.63 29.72 572.81 29.03Q572.41 28.69 571.94 28.43Q571.89 28.41 571.85 28.39Q570.46 27.65 568.67 27.65Q566.69 27.65 565.26 28.43Q564.71 28.73 564.26 29.14Q563.53 29.8 563.06 30.73Q562.28 32.24 562.28 34.42Q562.28 36.06 562.75 37.33Q563.21 38.59 564.06 39.47Q564.41 39.83 564.82 40.12Q565.39 40.52 566.07 40.78Q567.22 41.23 568.6 41.23Q570.08 41.23 571.26 40.78Q572.08 40.47 572.74 39.95Q573.02 39.73 573.27 39.47Q574.11 38.59 574.55 37.33ZM618.45 38.12Q619.19 36.6 619.19 34.42Q619.19 32.24 618.4 30.73Q617.82 29.61 616.92 28.88Q616.6 28.63 616.26 28.43Q616.14 28.37 616.03 28.31Q614.74 27.65 613.12 27.65Q611.48 27.65 610.2 28.26Q609.6 28.55 609.1 28.96Q608.54 29.42 608.12 30.04Q607.32 31.22 607.07 32.93L604.67 32.93L604.67 27.89L601.1 27.89L601.1 41L604.67 41L604.67 35.59L607.03 35.59Q607.26 37.51 608.07 38.76Q608.61 39.59 609.35 40.14Q609.73 40.42 610.15 40.62Q611.43 41.23 613.05 41.23Q614.95 41.23 616.33 40.44Q616.75 40.19 617.12 39.87Q617.93 39.17 618.45 38.12ZM649.5 37.33Q649.94 36.06 649.94 34.42Q649.94 32.24 649.13 30.73Q648.58 29.72 647.76 29.03Q647.36 28.69 646.89 28.43Q646.84 28.41 646.8 28.39Q645.41 27.65 643.62 27.65Q641.64 27.65 640.21 28.43Q639.66 28.73 639.21 29.14Q638.49 29.8 638.01 30.73Q637.24 32.24 637.24 34.42Q637.24 36.06 637.7 37.33Q638.16 38.59 639.01 39.47Q639.36 39.83 639.77 40.12Q640.34 40.52 641.02 40.78Q642.17 41.23 643.55 41.23Q645.03 41.23 646.21 40.78Q647.03 40.47 647.69 39.95Q647.97 39.73 648.22 39.47Q649.06 38.59 649.5 37.33ZM720.41 28.1Q719.5 27.65 718.37 27.65Q717.44 27.65 716.73 27.91Q716.02 28.17 715.52 28.62Q715.01 29.07 714.66 29.59L714.5 29.59L713.99 27.89L711.09 27.89L711.09 46.76L714.66 46.76L714.66 41.48Q714.66 41.01 714.61 40.51Q714.57 40.02 714.47 39.55L714.66 39.55Q715.01 39.99 715.49 40.37Q715.97 40.75 716.65 40.99Q717.33 41.23 718.28 41.23Q719.32 41.23 720.19 40.85Q720.56 40.69 720.89 40.46Q722.03 39.68 722.68 38.16Q723.32 36.65 723.32 34.42Q723.32 31.09 721.95 29.37Q721.29 28.53 720.41 28.1ZM735.28 28.34Q733.97 27.65 732.16 27.65Q730.3 27.65 728.91 28.41Q728.51 28.63 728.16 28.91Q727.29 29.62 726.74 30.71Q725.96 32.24 725.96 34.54Q725.96 36.8 726.82 38.29Q727.3 39.12 727.99 39.72Q728.53 40.18 729.2 40.5Q730.71 41.23 732.68 41.23Q734.19 41.23 735.26 41.01Q735.77 40.9 736.26 40.73Q736.79 40.55 737.29 40.3L737.29 37.54Q736.19 38.05 735.14 38.31Q734.1 38.57 732.85 38.57Q731.57 38.57 730.76 37.95Q730.61 37.84 730.49 37.71Q730.4 37.62 730.31 37.52Q729.63 36.69 729.58 35.33L738.03 35.33L738.03 33.6Q738.03 31.69 737.31 30.37Q736.93 29.65 736.37 29.12Q735.89 28.67 735.28 28.34ZM787.1 28.34Q785.79 27.65 783.97 27.65Q782.12 27.65 780.73 28.41Q780.33 28.63 779.98 28.91Q779.11 29.62 778.55 30.71Q777.78 32.24 777.78 34.54Q777.78 36.8 778.64 38.29Q779.12 39.12 779.81 39.72Q780.35 40.18 781.02 40.5Q782.53 41.23 784.5 41.23Q786.01 41.23 787.07 41.01Q787.59 40.9 788.08 40.73Q788.6 40.55 789.11 40.3L789.11 37.54Q788.01 38.05 786.96 38.31Q785.92 38.57 784.67 38.57Q783.38 38.57 782.58 37.95Q782.43 37.84 782.3 37.71Q782.21 37.62 782.13 37.52Q781.45 36.69 781.4 35.33L789.85 35.33L789.85 33.6Q789.85 31.69 789.13 30.37Q788.75 29.65 788.19 29.12Q787.71 28.67 787.1 28.34ZM202.94 32.93L202.94 27.89L199.37 27.89L199.37 41L202.94 41L202.94 35.59L207.94 35.59L207.94 41L211.51 41L211.51 27.89L207.94 27.89L207.94 32.93L202.94 32.93ZM237.27 30.58L241.56 30.58L241.56 27.89L229.39 27.89L229.39 30.58L233.69 30.58L233.69 41L237.27 41L237.27 30.58ZM250.57 32.96L248.05 32.96L248.05 27.89L244.47 27.89L244.47 41L250.71 41Q252.77 41 254.05 40.48Q255.32 39.96 255.91 39.03Q255.96 38.95 256 38.88Q256.5 37.99 256.5 36.82Q256.5 35.6 255.93 34.77Q255.89 34.71 255.85 34.66Q255.21 33.8 253.89 33.38Q252.58 32.96 250.57 32.96ZM288.29 30.58L292.58 30.58L292.58 27.89L280.41 27.89L280.41 30.58L284.71 30.58L284.71 41L288.29 41L288.29 30.58ZM306.86 32.5Q307.11 31.97 307.11 31.33Q307.11 30.19 306.56 29.47Q306.49 29.37 306.4 29.29Q305.7 28.54 304.48 28.22Q303.26 27.89 301.73 27.89L295.49 27.89L295.49 41L301.73 41Q303.79 41 305.07 40.49Q306.35 39.98 306.93 39.09Q307.12 38.8 307.25 38.49Q307.52 37.84 307.52 37.08Q307.52 36.42 307.26 35.88Q307.05 35.46 306.69 35.12Q306.63 35.07 306.58 35.02Q305.77 34.33 304.49 34.17L304.49 34.08Q305.78 33.87 306.45 33.13Q306.7 32.84 306.86 32.5ZM332.28 30.58L336.57 30.58L336.57 27.89L324.4 27.89L324.4 30.58L328.7 30.58L328.7 41L332.28 41L332.28 30.58ZM394.08 38.38L394.08 27.89L384.82 27.89Q384.66 29.85 384.29 31.75Q383.92 33.66 383.33 35.36Q382.74 37.06 381.87 38.38L380.77 38.38L380.77 45.69L383.98 45.69L383.98 41L392.79 41L392.79 45.69L396 45.69L396 38.38L394.08 38.38ZM420.25 30.58L424.54 30.58L424.54 27.89L412.37 27.89L412.37 30.58L416.67 30.58L416.67 41L420.25 41L420.25 30.58ZM433.55 32.96L431.03 32.96L431.03 27.89L427.45 27.89L427.45 41L433.69 41Q435.75 41 437.03 40.48Q438.31 39.96 438.89 39.03Q438.94 38.95 438.98 38.88Q439.48 37.99 439.48 36.82Q439.48 35.6 438.91 34.77Q438.87 34.71 438.83 34.66Q438.19 33.8 436.88 33.38Q435.56 32.96 433.55 32.96ZM460.74 32.5Q460.99 31.97 460.99 31.33Q460.99 30.19 460.44 29.47Q460.37 29.37 460.29 29.29Q459.59 28.54 458.37 28.22Q457.15 27.89 455.61 27.89L449.38 27.89L449.38 41L455.61 41Q457.68 41 458.95 40.49Q460.23 39.98 460.82 39.09Q461.01 38.8 461.14 38.49Q461.4 37.84 461.4 37.08Q461.4 36.42 461.14 35.88Q460.94 35.46 460.57 35.12Q460.52 35.07 460.47 35.02Q459.65 34.33 458.38 34.17L458.38 34.08Q459.67 33.87 460.33 33.13Q460.59 32.84 460.74 32.5ZM492.2 41L492.2 27.89L480.29 27.89L480.29 41L483.87 41L483.87 30.58L488.61 30.58L488.61 41L492.2 41ZM558.86 41L558.86 27.89L546.96 27.89L546.96 41L550.53 41L550.53 30.58L555.28 30.58L555.28 41L558.86 41ZM593.29 41L596.87 41L596.87 27.89L586.95 27.89Q586.78 30.44 586.58 32.23Q586.38 34.02 586.14 35.19Q585.9 36.37 585.63 37.03Q585.36 37.69 585.05 37.96Q584.8 38.19 584.52 38.22Q584.46 38.23 584.41 38.23Q584.16 38.23 583.91 38.18Q583.86 38.18 583.81 38.16Q583.52 38.1 583.26 38L583.26 40.85Q583.67 41.04 584.17 41.14Q584.67 41.23 585.3 41.23Q586.31 41.23 587.04 40.78Q587.14 40.72 587.23 40.64Q588.02 40.06 588.55 38.79Q589.07 37.51 589.41 35.49Q589.75 33.46 590 30.58L593.29 30.58L593.29 41ZM669.88 41L669.88 27.89L665.01 27.89L661.69 36.78L658.44 27.89L653.37 27.89L653.37 41L656.7 41L656.7 34.66Q656.7 33.58 656.67 32.67Q656.63 31.77 656.54 30.99L656.63 30.99L660.31 41L662.99 41L666.62 31.01L666.69 31.01Q666.62 31.78 666.58 32.7Q666.54 33.61 666.54 34.56L666.54 41L669.88 41ZM676.15 27.89L672.24 27.89L677.44 40.9L677.23 41.55Q677.04 42.14 676.71 42.64Q676.68 42.68 676.66 42.71Q676.42 43.07 676.1 43.32Q675.94 43.46 675.76 43.56Q675.22 43.88 674.47 43.88Q674.06 43.88 673.68 43.83Q673.31 43.78 673.06 43.73L673.06 46.56Q673.38 46.63 673.82 46.7Q674.27 46.76 674.88 46.76Q676.13 46.76 677.18 46.3Q677.36 46.22 677.54 46.13Q678.37 45.69 679.04 44.94Q679.85 44.03 680.35 42.67L685.89 27.89L682.06 27.89L679.63 35.26Q679.45 35.8 679.32 36.35Q679.2 36.91 679.13 37.54L679.06 37.54Q679.02 37.12 678.97 36.73Q678.91 36.34 678.83 35.98Q678.74 35.62 678.63 35.26L676.15 27.89ZM706.87 41L706.87 27.89L694.96 27.89L694.96 41L698.54 41L698.54 30.58L703.28 30.58L703.28 41L706.87 41ZM753.19 38.38L753.19 27.89L743.93 27.89Q743.77 29.85 743.4 31.75Q743.03 33.66 742.44 35.36Q741.85 37.06 740.98 38.38L739.88 38.38L739.88 45.69L743.09 45.69L743.09 41L751.9 41L751.9 45.69L755.11 45.69L755.11 38.38L753.19 38.38ZM774.34 41L774.34 27.89L769.47 27.89L766.15 36.78L762.89 27.89L757.83 27.89L757.83 41L761.16 41L761.16 34.66Q761.16 33.58 761.12 32.67Q761.09 31.77 760.99 30.99L761.09 30.99L764.77 41L767.45 41L771.07 31.01L771.14 31.01Q771.07 31.78 771.04 32.7Q771 33.61 771 34.56L771 41L774.34 41ZM799.78 30.58L804.07 30.58L804.07 27.89L791.91 27.89L791.91 30.58L796.21 30.58L796.21 41L799.78 41L799.78 30.58ZM809.03 27.89L805.11 27.89L810.32 40.9L810.11 41.55Q809.91 42.14 809.58 42.64Q809.56 42.68 809.53 42.71Q809.29 43.07 808.97 43.32Q808.81 43.46 808.63 43.56Q808.09 43.88 807.34 43.88Q806.93 43.88 806.56 43.83Q806.18 43.78 805.93 43.73L805.93 46.56Q806.25 46.63 806.7 46.7Q807.14 46.76 807.75 46.76Q809 46.76 810.05 46.3Q810.24 46.22 810.41 46.13Q811.24 45.69 811.91 44.94Q812.72 44.03 813.22 42.67L818.77 27.89L814.93 27.89L812.51 35.26Q812.32 35.8 812.2 36.35Q812.08 36.91 812 37.54L811.93 37.54Q811.9 37.12 811.84 36.73Q811.78 36.34 811.7 35.98Q811.62 35.62 811.5 35.26L809.03 27.89ZM315.29 30.47Q315.82 30.19 316.49 30.19Q317.34 30.19 317.88 30.55Q318.09 30.69 318.26 30.87Q318.53 31.15 318.7 31.54Q318.98 32.16 318.99 32.96L313.97 32.96Q314.08 31.53 314.76 30.86Q315.01 30.62 315.29 30.47ZM730.97 30.47Q731.5 30.19 732.18 30.19Q733.02 30.19 733.57 30.55Q733.78 30.69 733.95 30.87Q734.22 31.15 734.39 31.54Q734.66 32.16 734.68 32.96L729.66 32.96Q729.76 31.53 730.45 30.86Q730.69 30.62 730.97 30.47ZM782.79 30.47Q783.32 30.19 784 30.19Q784.84 30.19 785.39 30.55Q785.59 30.69 785.76 30.87Q786.04 31.15 786.21 31.54Q786.48 32.16 786.49 32.96L781.48 32.96Q781.58 31.53 782.27 30.86Q782.51 30.62 782.79 30.47ZM303.32 31.01Q303.49 31.25 303.49 31.61Q303.49 32.05 303.28 32.34Q303.14 32.54 302.9 32.67Q302.31 33 301.18 33L299.07 33L299.07 30.41L301.59 30.41Q302.53 30.41 303.01 30.71Q303.21 30.83 303.32 31.01ZM457.21 31.01Q457.37 31.25 457.37 31.61Q457.37 32.05 457.17 32.34Q457.02 32.54 456.79 32.67Q456.2 33 455.06 33L452.95 33L452.95 30.41L455.47 30.41Q456.41 30.41 456.89 30.71Q457.09 30.83 457.21 31.01ZM501.07 30.89Q501.62 30.51 502.56 30.51Q503.31 30.51 503.82 30.85Q504.17 31.09 504.41 31.48Q505.01 32.45 505.01 34.37Q505.01 35.65 504.74 36.54Q504.48 37.42 503.95 37.88Q503.85 37.96 503.75 38.03Q503.27 38.33 502.6 38.33Q501.61 38.33 501.04 37.88Q500.47 37.42 500.23 36.54Q499.99 35.66 499.99 34.4L499.99 34.01Q500.01 32.83 500.27 32.05Q500.5 31.33 501 30.94Q501.03 30.92 501.07 30.89ZM715.74 30.89Q716.29 30.51 717.23 30.51Q717.98 30.51 718.49 30.85Q718.84 31.09 719.08 31.48Q719.68 32.45 719.68 34.37Q719.68 35.65 719.41 36.54Q719.15 37.42 718.62 37.88Q718.52 37.96 718.42 38.03Q717.94 38.33 717.27 38.33Q716.28 38.33 715.71 37.88Q715.14 37.42 714.9 36.54Q714.66 35.66 714.66 34.4L714.66 34.01Q714.68 32.83 714.94 32.05Q715.17 31.33 715.67 30.94Q715.7 30.92 715.74 30.89ZM269.53 36.59Q269.25 35.71 269.25 34.42Q269.25 32.48 269.88 31.5Q270.07 31.22 270.32 31.02Q270.93 30.53 271.94 30.53Q272.9 30.53 273.5 30.96Q273.51 30.97 273.53 30.99Q274.1 31.42 274.37 32.26Q274.65 33.12 274.65 34.42Q274.65 35.71 274.37 36.59Q274.1 37.47 273.5 37.91Q272.91 38.36 271.96 38.36Q271 38.36 270.41 37.91Q269.81 37.47 269.53 36.59ZM468.08 36.59Q467.8 35.71 467.8 34.42Q467.8 32.48 468.44 31.5Q468.62 31.22 468.87 31.02Q469.49 30.53 470.5 30.53Q471.46 30.53 472.05 30.96Q472.07 30.97 472.08 30.99Q472.66 31.42 472.93 32.26Q473.2 33.12 473.2 34.42Q473.2 35.71 472.93 36.59Q472.65 37.47 472.06 37.91Q471.47 38.36 470.52 38.36Q469.56 38.36 468.96 37.91Q468.36 37.47 468.08 36.59ZM515.21 36.59Q514.93 35.71 514.93 34.42Q514.93 32.48 515.57 31.5Q515.76 31.22 516 31.02Q516.62 30.53 517.63 30.53Q518.59 30.53 519.19 30.96Q519.2 30.97 519.21 30.99Q519.79 31.42 520.06 32.26Q520.33 33.12 520.33 34.42Q520.33 35.71 520.06 36.59Q519.78 37.47 519.19 37.91Q518.6 38.36 517.65 38.36Q516.69 38.36 516.09 37.91Q515.49 37.47 515.21 36.59ZM566.21 36.59Q565.93 35.71 565.93 34.42Q565.93 32.48 566.57 31.5Q566.75 31.22 567 31.02Q567.62 30.53 568.63 30.53Q569.59 30.53 570.18 30.96Q570.2 30.97 570.21 30.99Q570.79 31.42 571.06 32.26Q571.33 33.12 571.33 34.42Q571.33 35.71 571.06 36.59Q570.78 37.47 570.19 37.91Q569.6 38.36 568.65 38.36Q567.69 38.36 567.09 37.91Q566.49 37.47 566.21 36.59ZM610.88 36.59Q610.62 35.71 610.62 34.42Q610.62 33.12 610.88 32.26Q611.13 31.4 611.67 30.96Q611.69 30.95 611.71 30.93Q612.24 30.53 613.07 30.53Q613.93 30.53 614.48 30.95Q614.49 30.96 614.5 30.96Q615.04 31.4 615.29 32.26Q615.55 33.12 615.55 34.42Q615.55 35.71 615.29 36.59Q615.04 37.47 614.5 37.91Q614.46 37.94 614.43 37.97Q613.9 38.36 613.1 38.36Q612.26 38.36 611.73 37.96Q611.7 37.94 611.67 37.91Q611.13 37.47 610.88 36.59ZM641.16 36.59Q640.88 35.71 640.88 34.42Q640.88 32.48 641.52 31.5Q641.7 31.22 641.95 31.02Q642.57 30.53 643.58 30.53Q644.54 30.53 645.14 30.96Q645.15 30.97 645.16 30.99Q645.74 31.42 646.01 32.26Q646.28 33.12 646.28 34.42Q646.28 35.71 646.01 36.59Q645.73 37.47 645.14 37.91Q644.55 38.36 643.6 38.36Q642.64 38.36 642.04 37.91Q641.44 37.47 641.16 36.59ZM387.82 30.58L390.51 30.58L390.51 38.38L385.61 38.38Q386.22 37.23 386.64 35.99Q387.06 34.74 387.35 33.38Q387.64 32.03 387.82 30.58ZM746.93 30.58L749.62 30.58L749.62 38.38L744.72 38.38Q745.33 37.23 745.75 35.99Q746.17 34.74 746.46 33.38Q746.74 32.03 746.93 30.58ZM629.72 38.01Q629.15 38.33 628.4 38.33Q627.6 38.33 627.04 37.96Q627.02 37.94 626.99 37.92Q626.92 37.88 626.86 37.83Q626.38 37.43 626.09 36.81Q625.76 36.11 625.62 35.24Q625.47 34.36 625.47 33.44Q625.65 33.11 626.1 32.63Q626.56 32.16 627.22 31.79Q627.54 31.61 627.88 31.52Q628.25 31.42 628.65 31.42Q629.48 31.42 629.99 31.83Q630.25 32.03 630.42 32.34Q630.94 33.26 630.94 34.83Q630.94 36.13 630.62 36.9Q630.3 37.67 629.73 38L629.72 38.01ZM221.62 34.97L223 34.92L223 36Q223 36.95 222.56 37.57Q222.41 37.77 222.21 37.94Q221.97 38.14 221.7 38.29Q221.07 38.62 220.27 38.62Q219.5 38.62 219.02 38.27Q218.95 38.22 218.89 38.16Q218.54 37.8 218.54 37.1Q218.54 36.56 218.77 36.14Q218.93 35.83 219.21 35.59Q219.89 35.02 221.62 34.97ZM373.21 34.97L374.59 34.92L374.59 36Q374.59 36.95 374.14 37.57Q374 37.77 373.8 37.94Q373.56 38.14 373.29 38.29Q372.66 38.62 371.86 38.62Q371.09 38.62 370.61 38.27Q370.54 38.22 370.48 38.16Q370.13 37.8 370.13 37.1Q370.13 36.56 370.36 36.14Q370.52 35.83 370.8 35.59Q371.48 35.02 373.21 34.97ZM404.6 34.97L405.99 34.92L405.99 36Q405.99 36.95 405.54 37.57Q405.39 37.77 405.2 37.94Q404.96 38.14 404.68 38.29Q404.06 38.62 403.26 38.62Q402.48 38.62 402 38.27Q401.93 38.22 401.87 38.16Q401.52 37.8 401.52 37.1Q401.52 36.56 401.75 36.14Q401.91 35.83 402.2 35.59Q402.87 35.02 404.6 34.97ZM252.71 36.12Q252.92 36.42 252.92 36.87Q252.92 37.44 252.65 37.8Q252.49 38.01 252.25 38.14Q251.59 38.52 250.54 38.52L248.05 38.52L248.05 35.43L250.5 35.43Q251.7 35.43 252.31 35.77Q252.57 35.91 252.71 36.12ZM303.59 36.11Q303.81 36.43 303.81 36.89Q303.81 37.46 303.54 37.82Q303.39 38.01 303.16 38.15Q302.5 38.52 301.49 38.52L299.07 38.52L299.07 35.43L301.42 35.43Q302.61 35.43 303.21 35.77Q303.45 35.91 303.59 36.11ZM435.7 36.12Q435.9 36.42 435.9 36.87Q435.9 37.44 435.63 37.8Q435.47 38.01 435.24 38.14Q434.57 38.52 433.52 38.52L431.03 38.52L431.03 35.43L433.48 35.43Q434.68 35.43 435.29 35.77Q435.55 35.91 435.7 36.12ZM457.48 36.11Q457.7 36.43 457.7 36.89Q457.7 37.46 457.42 37.82Q457.28 38.01 457.04 38.15Q456.39 38.52 455.38 38.52L452.95 38.52L452.95 35.43L455.31 35.43Q456.49 35.43 457.1 35.77Q457.33 35.91 457.48 36.11ZM822.6 37.86Q822.11 38.32 822.11 39.32Q822.11 40.24 822.57 40.71Q822.63 40.78 822.71 40.84Q822.85 40.95 823.01 41.04Q823.52 41.31 824.17 41.31Q824.75 41.31 825.22 41.08Q825.42 40.98 825.6 40.84Q825.68 40.78 825.75 40.71Q826.21 40.24 826.21 39.32Q826.21 38.32 825.71 37.86Q825.66 37.81 825.6 37.77Q825.46 37.66 825.3 37.58Q824.8 37.33 824.17 37.33Q823.46 37.33 822.93 37.63Q822.82 37.69 822.71 37.77Q822.65 37.81 822.6 37.86ZM342.99 38.48L342.81 38.21L339.53 38.21Q339.41 39.04 339.22 40.05Q339.03 41.05 338.81 42.1Q338.58 43.14 338.35 44.09L340.93 44.09Q341.32 43.21 341.72 42.24Q342.11 41.26 342.44 40.29Q342.78 39.32 342.99 38.48Z" fill="#FFFFFF" fill-opacity="1.000000" fill-rule="evenodd"/>
	<path id="Arrow 1" d="M964.37 30.5L958.45 24.57C957.86 23.98 957.86 23.04 958.45 22.45C959.04 21.86 959.98 21.86 960.57 22.45L969.06 30.93C969.65 31.53 969.65 32.46 969.06 33.06L960.57 41.54C959.98 42.13 959.04 42.13 958.45 41.54C957.86 40.95 957.86 40.01 958.45 39.42L964.37 33.5L920 33.5L920 30.5L964.37 30.5Z" fill="#FFFFFF" fill-opacity="1.000000" fill-rule="evenodd"/>
</svg>
