<svg width="20.215820" height="24.000000" viewBox="0 0 20.2158 24" fill="none" xmlns="http://www.w3.org/2000/svg" xmlns:xlink="http://www.w3.org/1999/xlink">
	<path id="path4" d="M19.79 18.7C19.42 19.54 18.99 20.31 18.5 21.02C17.82 21.99 17.26 22.66 16.83 23.03C16.17 23.64 15.46 23.95 14.7 23.97C14.15 23.97 13.49 23.81 12.73 23.5C11.96 23.18 11.25 23.03 10.6 23.03C9.92 23.03 9.19 23.18 8.42 23.5C7.64 23.81 7.01 23.98 6.53 23.99C5.8 24.02 5.07 23.7 4.34 23.03C3.88 22.62 3.3 21.93 2.61 20.95C1.86 19.9 1.25 18.68 0.77 17.3C0.25 15.8 0 14.35 0 12.94C0 11.33 0.34 9.95 1.04 8.79C1.59 7.85 2.31 7.11 3.22 6.57C4.14 6.03 5.12 5.76 6.18 5.74C6.76 5.74 7.52 5.92 8.47 6.27C9.41 6.63 10.01 6.81 10.28 6.81C10.48 6.81 11.15 6.6 12.29 6.18C13.37 5.79 14.28 5.63 15.02 5.69C17.04 5.86 18.56 6.65 19.57 8.09C17.76 9.18 16.87 10.71 16.88 12.68C16.9 14.21 17.46 15.48 18.55 16.5C19.04 16.96 19.6 17.33 20.21 17.59C20.08 17.97 19.94 18.34 19.79 18.7ZM15.16 0.48C15.16 1.68 14.72 2.8 13.84 3.83C12.79 5.07 11.51 5.78 10.13 5.67C10.11 5.52 10.1 5.37 10.1 5.21C10.1 4.06 10.6 2.83 11.49 1.82C11.94 1.31 12.5 0.88 13.19 0.54C13.87 0.21 14.52 0.03 15.13 0C15.15 0.16 15.16 0.32 15.16 0.48L15.16 0.48Z" fill="#2C234D" fill-opacity="1.000000" fill-rule="nonzero"/>
</svg>