<svg width="24.000000" height="24.000000" viewBox="0 0 24 24" fill="none" xmlns="http://www.w3.org/2000/svg" xmlns:xlink="http://www.w3.org/1999/xlink">
	<path id="Union" d="M12 0C5.37256 0 0 5.37256 0 12C0 18.6274 5.37256 24 12 24L24 24L24 12C24 5.37256 18.6274 0 12 0Z" clip-rule="evenodd" fill="#FC2E90" fill-opacity="0.300000" fill-rule="evenodd"/>
	<path id="Union" d="M12 5C8.13403 5 5 8.13403 5 12C5 15.866 8.13403 19 12 19L19 19L19 12C19 8.13403 15.866 5 12 5Z" clip-rule="evenodd" fill="#FC2E90" fill-opacity="1.000000" fill-rule="evenodd"/>
	<path id="Union" d="M12 9C10.3431 9 9 10.3433 9 12C9 13.6567 10.3431 15 12 15L15 15L15 12C15 10.3433 13.6569 9 12 9Z" clip-rule="evenodd" fill="#FFFFFF" fill-opacity="1.000000" fill-rule="evenodd"/>
</svg>
