<svg width="16.946777" height="16.215332" viewBox="0 0 16.9468 16.2153" fill="none" xmlns="http://www.w3.org/2000/svg" xmlns:xlink="http://www.w3.org/1999/xlink">
	<path id="Star 13" d="M7.58 0.53L5.64 4.21C5.5 4.48 5.23 4.68 4.93 4.73L0.83 5.44C0.03 5.58 -0.28 6.54 0.28 7.12L3.18 10.11C3.4 10.33 3.5 10.64 3.45 10.95L2.86 15.07C2.75 15.86 3.57 16.46 4.29 16.11L8.03 14.27C8.31 14.13 8.63 14.13 8.91 14.27L12.65 16.11C13.37 16.46 14.19 15.86 14.08 15.07L13.48 10.95C13.44 10.64 13.54 10.33 13.76 10.11L16.66 7.12C17.22 6.54 16.9 5.58 16.11 5.44L12.01 4.73C11.7 4.68 11.44 4.48 11.3 4.21L9.35 0.53C8.98 -0.18 7.96 -0.18 7.58 0.53Z" fill="#F2C94C" fill-opacity="1.000000" fill-rule="evenodd"/>
</svg>
