<svg width="24.000000" height="24.000000" viewBox="0 0 24 24" fill="none" xmlns="http://www.w3.org/2000/svg" xmlns:xlink="http://www.w3.org/1999/xlink">
		<clipPath id="clip35_1240">
			<rect id="VK.com-logo 1" width="24.000000" height="24.000000" fill="white" fill-opacity="0"/>
		</clipPath>
	<rect id="VK.com-logo 1" width="24.000000" height="24.000000" fill="#FFFFFF" fill-opacity="0"/>
	<g clip-path="url(#clip35_1240)">
		<path id="path2" d="M8.31 0L15.68 0C22.39 0 24 1.6 24 8.32L24 15.67C24 22.39 22.39 24 15.68 24L8.31 24C1.6 24 0 22.39 0 15.67L0 8.32C0 1.6 1.6 0 8.31 0Z" fill="#2787F5" fill-opacity="1.000000" fill-rule="evenodd"/>
		<path id="path4" d="M19.65 8.26C19.76 7.89 19.65 7.62 19.12 7.62L17.37 7.62C16.93 7.62 16.72 7.86 16.61 8.11C16.61 8.11 15.72 10.28 14.46 11.69C14.05 12.1 13.87 12.23 13.64 12.23C13.53 12.23 13.37 12.1 13.37 11.73L13.37 8.26C13.37 7.82 13.24 7.62 12.87 7.62L10.12 7.62C9.84 7.62 9.68 7.83 9.68 8.02C9.68 8.44 10.31 8.54 10.37 9.73L10.37 12.31C10.37 12.87 10.27 12.97 10.05 12.97C9.45 12.97 8.01 10.79 7.15 8.3C6.99 7.82 6.82 7.62 6.37 7.62L4.62 7.62C4.12 7.62 4.02 7.86 4.02 8.11C4.02 8.58 4.61 10.88 6.78 13.92C8.23 15.99 10.27 17.12 12.12 17.12C13.23 17.12 13.37 16.87 13.37 16.44L13.37 14.87C13.37 14.37 13.48 14.27 13.83 14.27C14.09 14.27 14.53 14.4 15.57 15.4C16.76 16.59 16.95 17.12 17.62 17.12L19.37 17.12C19.87 17.12 20.12 16.87 19.98 16.38C19.82 15.88 19.25 15.17 18.5 14.33C18.09 13.84 17.48 13.32 17.29 13.07C17.04 12.73 17.11 12.58 17.29 12.29C17.29 12.29 19.43 9.28 19.65 8.26Z" fill="#FFFFFF" fill-opacity="1.000000" fill-rule="evenodd"/>
	</g>
</svg>
